REM DIRINDEX 1\2\4\18,1\2\4\19,1\2\5\20,1\2\5\21,1\2\6\22,1\2\6\23,1\2\7\24,1\2\8\25,1\2\9\26,1\2\10\27,1\2\10\28,1\3\11\29,1\3\11\30,1\3\11\31,1\3\11\32,1\3\12\33,1\3\12\34,1\3\12\35,1\3\12\36,1\3\13\37,1\3\13\38,1\3\13\39,1\3\13\40,1\3\14\41,1\3\14\42,1\3\15\43,1\3\15\44,1\3\16\45,1\3\16\46,1\3\17\47,1\3\17\48,1\3\17\49,1\3\17\50
REM DIRNAME folder01,folder02,folder03,folder04,folder05,folder06,folder07,folder08,folder09,folder10,folder11,folder12,folder13,folder14,folder15,folder16,folder17,folder18,folder19,folder20,folder21,folder22,folder23,folder24,folder25,folder26,folder27,folder28,folder29,folder30,folder31,folder32,folder33,folder34,folder35,folder36,folder37,folder38,folder39,folder40,folder41,folder42,folder43,folder44,folder45,folder46,folder47,folder48,folder49,folder50
TITLE ""
FILE "03.mp3" MP3
  TRACK 01 AUDIO
    TITLE "0:"
    INDEX 01 00:00:00
  TRACK 02 AUDIO
    TITLE "29:cjc135_3354"
    INDEX 01 00:00:15
  TRACK 03 AUDIO
    TITLE "0:"
    INDEX 01 00:01:17
  TRACK 04 AUDIO
    TITLE "30:cjc135_3355"
    INDEX 01 00:01:69
  TRACK 05 AUDIO
    TITLE "0:"
    INDEX 01 00:05:03
  TRACK 06 AUDIO
    TITLE "31:cjc135_3356"
    INDEX 01 00:05:30
  TRACK 07 AUDIO
    TITLE "0:"
    INDEX 01 00:07:47
  TRACK 08 AUDIO
    TITLE "32:cjc135_3357"
    INDEX 01 00:07:74
  TRACK 09 AUDIO
    TITLE "0:"
    INDEX 01 00:10:19
  TRACK 10 AUDIO
    TITLE "29:cjc135_3358"
    INDEX 01 00:11:19
  TRACK 11 AUDIO
    TITLE "0:"
    INDEX 01 00:12:28
  TRACK 12 AUDIO
    TITLE "30:cjc135_3359"
    INDEX 01 00:13:08
  TRACK 13 AUDIO
    TITLE "0:"
    INDEX 01 00:15:34
  TRACK 14 AUDIO
    TITLE "31:cjc135_3360"
    INDEX 01 00:15:58
  TRACK 15 AUDIO
    TITLE "0:"
    INDEX 01 00:17:53
  TRACK 16 AUDIO
    TITLE "32:cjc135_3361"
    INDEX 01 00:18:05
  TRACK 17 AUDIO
    TITLE "0:"
    INDEX 01 00:19:73
  TRACK 18 AUDIO
    TITLE "29:cjc135_3362"
    INDEX 01 00:21:02
  TRACK 19 AUDIO
    TITLE "0:"
    INDEX 01 00:22:19
  TRACK 20 AUDIO
    TITLE "30:cjc135_3363"
    INDEX 01 00:22:68
  TRACK 21 AUDIO
    TITLE "0:"
    INDEX 01 00:25:35
  TRACK 22 AUDIO
    TITLE "31:cjc135_3364"
    INDEX 01 00:25:60
  TRACK 23 AUDIO
    TITLE "0:"
    INDEX 01 00:28:62
  TRACK 24 AUDIO
    TITLE "32:cjc135_3365"
    INDEX 01 00:29:13
  TRACK 25 AUDIO
    TITLE "0:"
    INDEX 01 00:32:13
  TRACK 26 AUDIO
    TITLE "29:cjc135_3366"
    INDEX 01 00:33:15
  TRACK 27 AUDIO
    TITLE "0:"
    INDEX 01 00:34:20
  TRACK 28 AUDIO
    TITLE "30:cjc135_3367"
    INDEX 01 00:34:65
  TRACK 29 AUDIO
    TITLE "0:"
    INDEX 01 00:37:52
  TRACK 30 AUDIO
    TITLE "31:cjc135_3368"
    INDEX 01 00:38:02
  TRACK 31 AUDIO
    TITLE "0:"
    INDEX 01 00:40:40
  TRACK 32 AUDIO
    TITLE "32:cjc135_3369"
    INDEX 01 00:40:68
  TRACK 33 AUDIO
    TITLE "0:"
    INDEX 01 00:43:31
  TRACK 34 AUDIO
    TITLE "29:cjc135_3370"
    INDEX 01 00:44:32
  TRACK 35 AUDIO
    TITLE "0:"
    INDEX 01 00:45:28
  TRACK 36 AUDIO
    TITLE "30:cjc135_3371"
    INDEX 01 00:46:06
  TRACK 37 AUDIO
    TITLE "0:"
    INDEX 01 00:49:37
  TRACK 38 AUDIO
    TITLE "31:cjc135_3372"
    INDEX 01 00:49:67
  TRACK 39 AUDIO
    TITLE "0:"
    INDEX 01 00:52:10
  TRACK 40 AUDIO
    TITLE "32:cjc135_3373"
    INDEX 01 00:52:37
  TRACK 41 AUDIO
    TITLE "0:"
    INDEX 01 00:54:56
  TRACK 42 AUDIO
    TITLE "29:cjc135_3374"
    INDEX 01 00:55:55
  TRACK 43 AUDIO
    TITLE "0:"
    INDEX 01 00:56:59
  TRACK 44 AUDIO
    TITLE "30:cjc135_3375"
    INDEX 01 00:57:35
  TRACK 45 AUDIO
    TITLE "0:"
    INDEX 01 00:59:61
  TRACK 46 AUDIO
    TITLE "31:cjc135_3376"
    INDEX 01 01:00:12
  TRACK 47 AUDIO
    TITLE "0:"
    INDEX 01 01:02:10
  TRACK 48 AUDIO
    TITLE "32:cjc135_3377"
    INDEX 01 01:02:34
  TRACK 49 AUDIO
    TITLE "0:"
    INDEX 01 01:04:35
  TRACK 50 AUDIO
    TITLE "29:cjc135_3378"
    INDEX 01 01:05:32
  TRACK 51 AUDIO
    TITLE "0:"
    INDEX 01 01:06:43
  TRACK 52 AUDIO
    TITLE "30:cjc135_3379"
    INDEX 01 01:07:17
  TRACK 53 AUDIO
    TITLE "0:"
    INDEX 01 01:09:71
  TRACK 54 AUDIO
    TITLE "31:cjc135_3380"
    INDEX 01 01:10:20
  TRACK 55 AUDIO
    TITLE "0:"
    INDEX 01 01:12:62
  TRACK 56 AUDIO
    TITLE "32:cjc135_3381"
    INDEX 01 01:13:10
  TRACK 57 AUDIO
    TITLE "0:"
    INDEX 01 01:15:50
  TRACK 58 AUDIO
    TITLE "29:cjc135_3382"
    INDEX 01 01:16:50
  TRACK 59 AUDIO
    TITLE "0:"
    INDEX 01 01:17:55
  TRACK 60 AUDIO
    TITLE "30:cjc135_3383"
    INDEX 01 01:18:29
  TRACK 61 AUDIO
    TITLE "0:"
    INDEX 01 01:20:59
  TRACK 62 AUDIO
    TITLE "31:cjc135_3384"
    INDEX 01 01:21:18
  TRACK 63 AUDIO
    TITLE "0:"
    INDEX 01 01:22:41
  TRACK 64 AUDIO
    TITLE "32:cjc135_3385"
    INDEX 01 01:23:01
  TRACK 65 AUDIO
    TITLE "0:"
    INDEX 01 01:24:22
  TRACK 66 AUDIO
    TITLE "29:cjc135_3386"
    INDEX 01 01:25:21
  TRACK 67 AUDIO
    TITLE "0:"
    INDEX 01 01:26:34
  TRACK 68 AUDIO
    TITLE "30:cjc135_3387"
    INDEX 01 01:27:10
  TRACK 69 AUDIO
    TITLE "0:"
    INDEX 01 01:29:13
  TRACK 70 AUDIO
    TITLE "31:cjc135_3388"
    INDEX 01 01:29:37
  TRACK 71 AUDIO
    TITLE "0:"
    INDEX 01 01:31:10
  TRACK 72 AUDIO
    TITLE "32:cjc135_3389"
    INDEX 01 01:31:36
  TRACK 73 AUDIO
    TITLE "0:"
    INDEX 01 01:33:07
  TRACK 74 AUDIO
    TITLE "29:cjc135_3390"
    INDEX 01 01:34:06
  TRACK 75 AUDIO
    TITLE "0:"
    INDEX 01 01:35:10
  TRACK 76 AUDIO
    TITLE "30:cjc135_3391"
    INDEX 01 01:35:59
  TRACK 77 AUDIO
    TITLE "0:"
    INDEX 01 01:37:52
  TRACK 78 AUDIO
    TITLE "31:cjc135_3392"
    INDEX 01 01:38:02
  TRACK 79 AUDIO
    TITLE "0:"
    INDEX 01 01:39:37
  TRACK 80 AUDIO
    TITLE "32:cjc135_3393"
    INDEX 01 01:39:63
  TRACK 81 AUDIO
    TITLE "0:"
    INDEX 01 01:41:22
  TRACK 82 AUDIO
    TITLE "29:cjc135_3394"
    INDEX 01 01:42:22
  TRACK 83 AUDIO
    TITLE "0:"
    INDEX 01 01:43:47
  TRACK 84 AUDIO
    TITLE "30:cjc135_3395"
    INDEX 01 01:44:23
  TRACK 85 AUDIO
    TITLE "0:"
    INDEX 01 01:46:70
  TRACK 86 AUDIO
    TITLE "31:cjc135_3396"
    INDEX 01 01:47:19
  TRACK 87 AUDIO
    TITLE "0:"
    INDEX 01 01:49:49
  TRACK 88 AUDIO
    TITLE "32:cjc135_3397"
    INDEX 01 01:50:00
  TRACK 89 AUDIO
    TITLE "0:"
    INDEX 01 01:52:32
  TRACK 90 AUDIO
    TITLE "29:cjc135_3398"
    INDEX 01 01:53:29
  TRACK 91 AUDIO
    TITLE "0:"
    INDEX 01 01:54:37
  TRACK 92 AUDIO
    TITLE "30:cjc135_3399"
    INDEX 01 01:55:13
  TRACK 93 AUDIO
    TITLE "0:"
    INDEX 01 01:56:43
  TRACK 94 AUDIO
    TITLE "31:cjc135_3400"
    INDEX 01 01:56:69
  TRACK 95 AUDIO
    TITLE "0:"
    INDEX 01 01:58:38
  TRACK 96 AUDIO
    TITLE "32:cjc135_3401"
    INDEX 01 01:58:64
  TRACK 97 AUDIO
    TITLE "0:"
    INDEX 01 02:00:35
  TRACK 98 AUDIO
    TITLE "29:cjc135_3402"
    INDEX 01 02:01:35
  TRACK 99 AUDIO
    TITLE "0:"
    INDEX 01 02:02:38
  TRACK 100 AUDIO
    TITLE "30:cjc135_3403"
    INDEX 01 02:03:12
  TRACK 101 AUDIO
    TITLE "0:"
    INDEX 01 02:05:50
  TRACK 102 AUDIO
    TITLE "31:cjc135_3404"
    INDEX 01 02:06:01
  TRACK 103 AUDIO
    TITLE "0:"
    INDEX 01 02:08:07
  TRACK 104 AUDIO
    TITLE "32:cjc135_3405"
    INDEX 01 02:08:35
  TRACK 105 AUDIO
    TITLE "0:"
    INDEX 01 02:10:43
  TRACK 106 AUDIO
    TITLE "29:cjc135_3406"
    INDEX 01 02:11:45
  TRACK 107 AUDIO
    TITLE "0:"
    INDEX 01 02:12:70
  TRACK 108 AUDIO
    TITLE "30:cjc135_3407"
    INDEX 01 02:13:44
  TRACK 109 AUDIO
    TITLE "0:"
    INDEX 01 02:15:64
  TRACK 110 AUDIO
    TITLE "31:cjc135_3408"
    INDEX 01 02:16:15
  TRACK 111 AUDIO
    TITLE "0:"
    INDEX 01 02:18:19
  TRACK 112 AUDIO
    TITLE "32:cjc135_3409"
    INDEX 01 02:18:45
  TRACK 113 AUDIO
    TITLE "0:"
    INDEX 01 02:20:50
  TRACK 114 AUDIO
    TITLE "29:cjc135_3410"
    INDEX 01 02:21:49
  TRACK 115 AUDIO
    TITLE "0:"
    INDEX 01 02:22:68
  TRACK 116 AUDIO
    TITLE "30:cjc135_3411"
    INDEX 01 02:23:42
  TRACK 117 AUDIO
    TITLE "0:"
    INDEX 01 02:26:07
  TRACK 118 AUDIO
    TITLE "31:cjc135_3412"
    INDEX 01 02:26:35
  TRACK 119 AUDIO
    TITLE "0:"
    INDEX 01 02:29:00
  TRACK 120 AUDIO
    TITLE "32:cjc135_3413"
    INDEX 01 02:29:27
  TRACK 121 AUDIO
    TITLE "0:"
    INDEX 01 02:31:67
  TRACK 122 AUDIO
    TITLE "29:cjc135_3414"
    INDEX 01 02:32:67
  TRACK 123 AUDIO
    TITLE "0:"
    INDEX 01 02:33:64
  TRACK 124 AUDIO
    TITLE "30:cjc135_3415"
    INDEX 01 02:34:40
  TRACK 125 AUDIO
    TITLE "0:"
    INDEX 01 02:36:13
  TRACK 126 AUDIO
    TITLE "31:cjc135_3416"
    INDEX 01 02:36:39
  TRACK 127 AUDIO
    TITLE "0:"
    INDEX 01 02:37:74
  TRACK 128 AUDIO
    TITLE "32:cjc135_3417"
    INDEX 01 02:38:24
  TRACK 129 AUDIO
    TITLE "0:"
    INDEX 01 02:39:61
  TRACK 130 AUDIO
    TITLE "29:cjc135_3418"
    INDEX 01 02:40:62
  TRACK 131 AUDIO
    TITLE "0:"
    INDEX 01 02:41:66
  TRACK 132 AUDIO
    TITLE "30:cjc135_3419"
    INDEX 01 02:42:40
  TRACK 133 AUDIO
    TITLE "0:"
    INDEX 01 02:44:13
  TRACK 134 AUDIO
    TITLE "31:cjc135_3420"
    INDEX 01 02:44:40
  TRACK 135 AUDIO
    TITLE "0:"
    INDEX 01 02:46:08
  TRACK 136 AUDIO
    TITLE "32:cjc135_3421"
    INDEX 01 02:46:31
  TRACK 137 AUDIO
    TITLE "0:"
    INDEX 01 02:48:01
  TRACK 138 AUDIO
    TITLE "29:cjc135_3422"
    INDEX 01 02:48:73
  TRACK 139 AUDIO
    TITLE "0:"
    INDEX 01 02:50:08
  TRACK 140 AUDIO
    TITLE "30:cjc135_3423"
    INDEX 01 02:50:57
  TRACK 141 AUDIO
    TITLE "0:"
    INDEX 01 02:52:61
  TRACK 142 AUDIO
    TITLE "31:cjc135_3424"
    INDEX 01 02:53:10
  TRACK 143 AUDIO
    TITLE "0:"
    INDEX 01 02:55:52
  TRACK 144 AUDIO
    TITLE "32:cjc135_3425"
    INDEX 01 02:56:02
  TRACK 145 AUDIO
    TITLE "0:"
    INDEX 01 02:58:46
  TRACK 146 AUDIO
    TITLE "29:cjc135_3426"
    INDEX 01 02:59:44
  TRACK 147 AUDIO
    TITLE "0:"
    INDEX 01 03:00:43
  TRACK 148 AUDIO
    TITLE "30:cjc135_3427"
    INDEX 01 03:01:17
  TRACK 149 AUDIO
    TITLE "0:"
    INDEX 01 03:03:04
  TRACK 150 AUDIO
    TITLE "31:cjc135_3428"
    INDEX 01 03:03:30
  TRACK 151 AUDIO
    TITLE "0:"
    INDEX 01 03:04:71
  TRACK 152 AUDIO
    TITLE "32:cjc135_3429"
    INDEX 01 03:05:19
  TRACK 153 AUDIO
    TITLE "0:"
    INDEX 01 03:06:58
  TRACK 154 AUDIO
    TITLE "29:cjc135_3430"
    INDEX 01 03:07:59
  TRACK 155 AUDIO
    TITLE "0:"
    INDEX 01 03:08:74
  TRACK 156 AUDIO
    TITLE "30:cjc135_3431"
    INDEX 01 03:09:50
  TRACK 157 AUDIO
    TITLE "0:"
    INDEX 01 03:12:45
  TRACK 158 AUDIO
    TITLE "31:cjc135_3432"
    INDEX 01 03:12:70
  TRACK 159 AUDIO
    TITLE "0:"
    INDEX 01 03:15:64
  TRACK 160 AUDIO
    TITLE "32:cjc135_3433"
    INDEX 01 03:16:15
  TRACK 161 AUDIO
    TITLE "0:"
    INDEX 01 03:19:11
  TRACK 162 AUDIO
    TITLE "29:cjc135_3434"
    INDEX 01 03:20:09
  TRACK 163 AUDIO
    TITLE "0:"
    INDEX 01 03:21:20
  TRACK 164 AUDIO
    TITLE "30:cjc135_3435"
    INDEX 01 03:21:69
  TRACK 165 AUDIO
    TITLE "0:"
    INDEX 01 03:25:22
  TRACK 166 AUDIO
    TITLE "31:cjc135_3436"
    INDEX 01 03:25:47
  TRACK 167 AUDIO
    TITLE "0:"
    INDEX 01 03:27:62
  TRACK 168 AUDIO
    TITLE "32:cjc135_3437"
    INDEX 01 03:28:10
  TRACK 169 AUDIO
    TITLE "0:"
    INDEX 01 03:30:23
  TRACK 170 AUDIO
    TITLE "29:cjc135_3438"
    INDEX 01 03:31:22
  TRACK 171 AUDIO
    TITLE "0:"
    INDEX 01 03:32:26
  TRACK 172 AUDIO
    TITLE "30:cjc135_3439"
    INDEX 01 03:33:00
  TRACK 173 AUDIO
    TITLE "0:"
    INDEX 01 03:35:04
  TRACK 174 AUDIO
    TITLE "31:cjc135_3440"
    INDEX 01 03:35:30
  TRACK 175 AUDIO
    TITLE "0:"
    INDEX 01 03:37:41
  TRACK 176 AUDIO
    TITLE "32:cjc135_3441"
    INDEX 01 03:37:68
  TRACK 177 AUDIO
    TITLE "0:"
    INDEX 01 03:40:02
  TRACK 178 AUDIO
    TITLE "29:cjc135_3442"
    INDEX 01 03:41:05
  TRACK 179 AUDIO
    TITLE "0:"
    INDEX 01 03:42:22
  TRACK 180 AUDIO
    TITLE "30:cjc135_3443"
    INDEX 01 03:42:73
  TRACK 181 AUDIO
    TITLE "0:"
    INDEX 01 03:44:41
  TRACK 182 AUDIO
    TITLE "31:cjc135_3444"
    INDEX 01 03:44:66
  TRACK 183 AUDIO
    TITLE "0:"
    INDEX 01 03:46:73
  TRACK 184 AUDIO
    TITLE "32:cjc135_3445"
    INDEX 01 03:47:21
  TRACK 185 AUDIO
    TITLE "0:"
    INDEX 01 03:49:28
  TRACK 186 AUDIO
    TITLE "29:cjc135_3446"
    INDEX 01 03:50:28
  TRACK 187 AUDIO
    TITLE "0:"
    INDEX 01 03:51:47
  TRACK 188 AUDIO
    TITLE "30:cjc135_3447"
    INDEX 01 03:52:21
  TRACK 189 AUDIO
    TITLE "0:"
    INDEX 01 03:54:31
  TRACK 190 AUDIO
    TITLE "31:cjc135_3448"
    INDEX 01 03:54:57
  TRACK 191 AUDIO
    TITLE "0:"
    INDEX 01 03:56:46
  TRACK 192 AUDIO
    TITLE "32:cjc135_3449"
    INDEX 01 03:56:71
  TRACK 193 AUDIO
    TITLE "0:"
    INDEX 01 03:58:62
  TRACK 194 AUDIO
    TITLE "29:cjc135_3450"
    INDEX 01 03:59:62
  TRACK 195 AUDIO
    TITLE "0:"
    INDEX 01 04:00:67
  TRACK 196 AUDIO
    TITLE "30:cjc135_3451"
    INDEX 01 04:01:45
  TRACK 197 AUDIO
    TITLE "0:"
    INDEX 01 04:03:32
  TRACK 198 AUDIO
    TITLE "31:cjc135_3452"
    INDEX 01 04:03:58
  TRACK 199 AUDIO
    TITLE "0:"
    INDEX 01 04:05:25
  TRACK 200 AUDIO
    TITLE "32:cjc135_3453"
    INDEX 01 04:05:51
  TRACK 201 AUDIO
    TITLE "0:"
    INDEX 01 04:07:16
  TRACK 202 AUDIO
    TITLE "29:cjc135_3454"
    INDEX 01 04:08:18
  TRACK 203 AUDIO
    TITLE "0:"
    INDEX 01 04:09:31
  TRACK 204 AUDIO
    TITLE "30:cjc135_3455"
    INDEX 01 04:10:07
  TRACK 205 AUDIO
    TITLE "0:"
    INDEX 01 04:11:49
  TRACK 206 AUDIO
    TITLE "31:cjc135_3456"
    INDEX 01 04:12:00
  TRACK 207 AUDIO
    TITLE "0:"
    INDEX 01 04:13:72
  TRACK 208 AUDIO
    TITLE "32:cjc135_3457"
    INDEX 01 04:14:22
  TRACK 209 AUDIO
    TITLE "0:"
    INDEX 01 04:16:19
  TRACK 210 AUDIO
    TITLE "29:cjc135_3458"
    INDEX 01 04:17:20
  TRACK 211 AUDIO
    TITLE "0:"
    INDEX 01 04:18:36
  TRACK 212 AUDIO
    TITLE "30:cjc135_3459"
    INDEX 01 04:19:10
  TRACK 213 AUDIO
    TITLE "0:"
    INDEX 01 04:21:67
  TRACK 214 AUDIO
    TITLE "31:cjc135_3460"
    INDEX 01 04:22:18
  TRACK 215 AUDIO
    TITLE "0:"
    INDEX 01 04:25:16
  TRACK 216 AUDIO
    TITLE "32:cjc135_3461"
    INDEX 01 04:25:42
  TRACK 217 AUDIO
    TITLE "0:"
    INDEX 01 04:28:40
  TRACK 218 AUDIO
    TITLE "29:cjc135_3462"
    INDEX 01 04:29:41
  TRACK 219 AUDIO
    TITLE "0:"
    INDEX 01 04:30:41
  TRACK 220 AUDIO
    TITLE "30:cjc135_3463"
    INDEX 01 04:31:13
  TRACK 221 AUDIO
    TITLE "0:"
    INDEX 01 04:32:65
  TRACK 222 AUDIO
    TITLE "31:cjc135_3464"
    INDEX 01 04:33:12
  TRACK 223 AUDIO
    TITLE "0:"
    INDEX 01 04:34:64
  TRACK 224 AUDIO
    TITLE "32:cjc135_3465"
    INDEX 01 04:35:15
  TRACK 225 AUDIO
    TITLE "0:"
    INDEX 01 04:36:67
  TRACK 226 AUDIO
    TITLE "29:cjc135_3466"
    INDEX 01 04:37:66
  TRACK 227 AUDIO
    TITLE "0:"
    INDEX 01 04:39:03
  TRACK 228 AUDIO
    TITLE "30:cjc135_3467"
    INDEX 01 04:39:51
  TRACK 229 AUDIO
    TITLE "0:"
    INDEX 01 04:41:46
  TRACK 230 AUDIO
    TITLE "31:cjc135_3468"
    INDEX 01 04:41:74
  TRACK 231 AUDIO
    TITLE "0:"
    INDEX 01 04:43:47
  TRACK 232 AUDIO
    TITLE "32:cjc135_3469"
    INDEX 01 04:43:73
  TRACK 233 AUDIO
    TITLE "0:"
    INDEX 01 04:45:44
  TRACK 234 AUDIO
    TITLE "29:cjc135_3470"
    INDEX 01 04:46:44
  TRACK 235 AUDIO
    TITLE "0:"
    INDEX 01 04:47:59
  TRACK 236 AUDIO
    TITLE "30:cjc135_3471"
    INDEX 01 04:48:33
  TRACK 237 AUDIO
    TITLE "0:"
    INDEX 01 04:51:08
  TRACK 238 AUDIO
    TITLE "31:cjc135_3472"
    INDEX 01 04:51:33
  TRACK 239 AUDIO
    TITLE "0:"
    INDEX 01 04:53:61
  TRACK 240 AUDIO
    TITLE "32:cjc135_3473"
    INDEX 01 04:54:14
  TRACK 241 AUDIO
    TITLE "0:"
    INDEX 01 04:56:46
  TRACK 242 AUDIO
    TITLE "29:cjc135_3474"
    INDEX 01 04:57:47
  TRACK 243 AUDIO
    TITLE "0:"
    INDEX 01 04:58:49
  TRACK 244 AUDIO
    TITLE "30:cjc135_3475"
    INDEX 01 04:59:25
  TRACK 245 AUDIO
    TITLE "0:"
    INDEX 01 05:02:07
  TRACK 246 AUDIO
    TITLE "31:cjc135_3476"
    INDEX 01 05:02:33
  TRACK 247 AUDIO
    TITLE "0:"
    INDEX 01 05:03:68
  TRACK 248 AUDIO
    TITLE "32:cjc135_3477"
    INDEX 01 05:04:18
  TRACK 249 AUDIO
    TITLE "0:"
    INDEX 01 05:05:53
  TRACK 250 AUDIO
    TITLE "29:cjc135_3478"
    INDEX 01 05:06:52
  TRACK 251 AUDIO
    TITLE "0:"
    INDEX 01 05:07:65
  TRACK 252 AUDIO
    TITLE "30:cjc135_3479"
    INDEX 01 05:08:41
  TRACK 253 AUDIO
    TITLE "0:"
    INDEX 01 05:11:22
  TRACK 254 AUDIO
    TITLE "31:cjc135_3480"
    INDEX 01 05:11:48
  TRACK 255 AUDIO
    TITLE "0:"
    INDEX 01 05:13:74
  TRACK 256 AUDIO
    TITLE "32:cjc135_3481"
    INDEX 01 05:14:22
  TRACK 257 AUDIO
    TITLE "0:"
    INDEX 01 05:16:49
  TRACK 258 AUDIO
    TITLE "29:cjc135_3482"
    INDEX 01 05:17:44
  TRACK 259 AUDIO
    TITLE "0:"
    INDEX 01 05:18:48
  TRACK 260 AUDIO
    TITLE "30:cjc135_3483"
    INDEX 01 05:19:22
  TRACK 261 AUDIO
    TITLE "0:"
    INDEX 01 05:20:74
  TRACK 262 AUDIO
    TITLE "31:cjc135_3484"
    INDEX 01 05:21:22
  TRACK 263 AUDIO
    TITLE "0:"
    INDEX 01 05:22:61
  TRACK 264 AUDIO
    TITLE "32:cjc135_3485"
    INDEX 01 05:23:12
  TRACK 265 AUDIO
    TITLE "0:"
    INDEX 01 05:24:52
  TRACK 266 AUDIO
    TITLE "29:cjc135_3486"
    INDEX 01 05:25:52
  TRACK 267 AUDIO
    TITLE "0:"
    INDEX 01 05:27:05
  TRACK 268 AUDIO
    TITLE "30:cjc135_3487"
    INDEX 01 05:27:54
  TRACK 269 AUDIO
    TITLE "0:"
    INDEX 01 05:30:18
  TRACK 270 AUDIO
    TITLE "31:cjc135_3488"
    INDEX 01 05:30:43
  TRACK 271 AUDIO
    TITLE "0:"
    INDEX 01 05:32:52
  TRACK 272 AUDIO
    TITLE "32:cjc135_3489"
    INDEX 01 05:33:02
  TRACK 273 AUDIO
    TITLE "0:"
    INDEX 01 05:35:13
  TRACK 274 AUDIO
    TITLE "29:cjc135_3490"
    INDEX 01 05:36:12
  TRACK 275 AUDIO
    TITLE "0:"
    INDEX 01 05:37:20
  TRACK 276 AUDIO
    TITLE "30:cjc135_3491"
    INDEX 01 05:37:70
  TRACK 277 AUDIO
    TITLE "0:"
    INDEX 01 05:40:47
  TRACK 278 AUDIO
    TITLE "31:cjc135_3492"
    INDEX 01 05:40:69
  TRACK 279 AUDIO
    TITLE "0:"
    INDEX 01 05:43:34
  TRACK 280 AUDIO
    TITLE "32:cjc135_3493"
    INDEX 01 05:43:59
  TRACK 281 AUDIO
    TITLE "0:"
    INDEX 01 05:46:22
  TRACK 282 AUDIO
    TITLE "29:cjc135_3494"
    INDEX 01 05:47:26
  TRACK 283 AUDIO
    TITLE "0:"
    INDEX 01 05:48:25
  TRACK 284 AUDIO
    TITLE "30:cjc135_3495"
    INDEX 01 05:48:74
  TRACK 285 AUDIO
    TITLE "0:"
    INDEX 01 05:51:16
  TRACK 286 AUDIO
    TITLE "31:cjc135_3496"
    INDEX 01 05:51:39
  TRACK 287 AUDIO
    TITLE "0:"
    INDEX 01 05:53:21
  TRACK 288 AUDIO
    TITLE "32:cjc135_3497"
    INDEX 01 05:53:42
  TRACK 289 AUDIO
    TITLE "0:"
    INDEX 01 05:55:23
  TRACK 290 AUDIO
    TITLE "29:cjc135_3498"
    INDEX 01 05:56:23
  TRACK 291 AUDIO
    TITLE "0:"
    INDEX 01 05:57:16
  TRACK 292 AUDIO
    TITLE "30:cjc135_3499"
    INDEX 01 05:57:67
  TRACK 293 AUDIO
    TITLE "0:"
    INDEX 01 06:00:40
  TRACK 294 AUDIO
    TITLE "31:cjc135_3500"
    INDEX 01 06:00:64
  TRACK 295 AUDIO
    TITLE "0:"
    INDEX 01 06:03:19
  TRACK 296 AUDIO
    TITLE "32:cjc135_3501"
    INDEX 01 06:03:44
  TRACK 297 AUDIO
    TITLE "0:"
    INDEX 01 06:06:02
  TRACK 298 AUDIO
    TITLE "29:cjc135_3502"
    INDEX 01 06:06:74
  TRACK 299 AUDIO
    TITLE "0:"
    INDEX 01 06:08:10
  TRACK 300 AUDIO
    TITLE "30:cjc135_3503"
    INDEX 01 06:08:59
  TRACK 301 AUDIO
    TITLE "0:"
    INDEX 01 06:10:44
  TRACK 302 AUDIO
    TITLE "31:cjc135_3504"
    INDEX 01 06:10:68
  TRACK 303 AUDIO
    TITLE "0:"
    INDEX 01 06:12:49
  TRACK 304 AUDIO
    TITLE "32:cjc135_3505"
    INDEX 01 06:13:00
  TRACK 305 AUDIO
    TITLE "0:"
    INDEX 01 06:14:56
  TRACK 306 AUDIO
    TITLE "29:cjc135_3506"
    INDEX 01 06:15:55
  TRACK 307 AUDIO
    TITLE "0:"
    INDEX 01 06:16:61
  TRACK 308 AUDIO
    TITLE "30:cjc135_3507"
    INDEX 01 06:17:35
  TRACK 309 AUDIO
    TITLE "0:"
    INDEX 01 06:19:61
  TRACK 310 AUDIO
    TITLE "31:cjc135_3508"
    INDEX 01 06:20:17
  TRACK 311 AUDIO
    TITLE "0:"
    INDEX 01 06:22:32
  TRACK 312 AUDIO
    TITLE "32:cjc135_3509"
    INDEX 01 06:22:55
  TRACK 313 AUDIO
    TITLE "0:"
    INDEX 01 06:24:70
  TRACK 314 AUDIO
    TITLE "29:cjc135_3510"
    INDEX 01 06:25:69
  TRACK 315 AUDIO
    TITLE "0:"
    INDEX 01 06:27:08
  TRACK 316 AUDIO
    TITLE "30:cjc135_3511"
    INDEX 01 06:27:55
  TRACK 317 AUDIO
    TITLE "0:"
    INDEX 01 06:29:59
  TRACK 318 AUDIO
    TITLE "31:cjc135_3512"
    INDEX 01 06:30:10
  TRACK 319 AUDIO
    TITLE "0:"
    INDEX 01 06:31:52
  TRACK 320 AUDIO
    TITLE "32:cjc135_3513"
    INDEX 01 06:32:03
  TRACK 321 AUDIO
    TITLE "0:"
    INDEX 01 06:33:44
  TRACK 322 AUDIO
    TITLE "29:cjc135_3514"
    INDEX 01 06:34:45
  TRACK 323 AUDIO
    TITLE "0:"
    INDEX 01 06:35:58
  TRACK 324 AUDIO
    TITLE "30:cjc135_3515"
    INDEX 01 06:36:34
  TRACK 325 AUDIO
    TITLE "0:"
    INDEX 01 06:38:64
  TRACK 326 AUDIO
    TITLE "31:cjc135_3516"
    INDEX 01 06:39:13
  TRACK 327 AUDIO
    TITLE "0:"
    INDEX 01 06:41:25
  TRACK 328 AUDIO
    TITLE "32:cjc135_3517"
    INDEX 01 06:41:53
  TRACK 329 AUDIO
    TITLE "0:"
    INDEX 01 06:43:67
  TRACK 330 AUDIO
    TITLE "29:cjc135_3518"
    INDEX 01 06:44:67
  TRACK 331 AUDIO
    TITLE "0:"
    INDEX 01 06:46:11
  TRACK 332 AUDIO
    TITLE "30:cjc135_3519"
    INDEX 01 06:46:60
  TRACK 333 AUDIO
    TITLE "0:"
    INDEX 01 06:50:01
  TRACK 334 AUDIO
    TITLE "31:cjc135_3520"
    INDEX 01 06:50:24
  TRACK 335 AUDIO
    TITLE "0:"
    INDEX 01 06:53:05
  TRACK 336 AUDIO
    TITLE "32:cjc135_3521"
    INDEX 01 06:53:27
  TRACK 337 AUDIO
    TITLE "0:"
    INDEX 01 06:56:07
  TRACK 338 AUDIO
    TITLE "29:cjc135_3522"
    INDEX 01 06:57:07
  TRACK 339 AUDIO
    TITLE "0:"
    INDEX 01 06:58:26
  TRACK 340 AUDIO
    TITLE "30:cjc135_3523"
    INDEX 01 06:59:00
  TRACK 341 AUDIO
    TITLE "0:"
    INDEX 01 07:01:54
  TRACK 342 AUDIO
    TITLE "31:cjc135_3524"
    INDEX 01 07:02:08
  TRACK 343 AUDIO
    TITLE "0:"
    INDEX 01 07:04:26
  TRACK 344 AUDIO
    TITLE "32:cjc135_3525"
    INDEX 01 07:04:50
  TRACK 345 AUDIO
    TITLE "0:"
    INDEX 01 07:06:68
  TRACK 346 AUDIO
    TITLE "29:cjc135_3526"
    INDEX 01 07:07:68
  TRACK 347 AUDIO
    TITLE "0:"
    INDEX 01 07:09:16
  TRACK 348 AUDIO
    TITLE "30:cjc135_3527"
    INDEX 01 07:09:65
  TRACK 349 AUDIO
    TITLE "0:"
    INDEX 01 07:11:40
  TRACK 350 AUDIO
    TITLE "31:cjc135_3528"
    INDEX 01 07:11:68
  TRACK 351 AUDIO
    TITLE "0:"
    INDEX 01 07:13:55
  TRACK 352 AUDIO
    TITLE "32:cjc135_3529"
    INDEX 01 07:14:07
  TRACK 353 AUDIO
    TITLE "0:"
    INDEX 01 07:15:73
  TRACK 354 AUDIO
    TITLE "29:cjc135_3530"
    INDEX 01 07:16:73
  TRACK 355 AUDIO
    TITLE "0:"
    INDEX 01 07:18:01
  TRACK 356 AUDIO
    TITLE "30:cjc135_3531"
    INDEX 01 07:18:54
  TRACK 357 AUDIO
    TITLE "0:"
    INDEX 01 07:21:05
  TRACK 358 AUDIO
    TITLE "31:cjc135_3532"
    INDEX 01 07:21:29
  TRACK 359 AUDIO
    TITLE "0:"
    INDEX 01 07:23:32
  TRACK 360 AUDIO
    TITLE "32:cjc135_3533"
    INDEX 01 07:23:57
  TRACK 361 AUDIO
    TITLE "0:"
    INDEX 01 07:25:58
  TRACK 362 AUDIO
    TITLE "29:cjc135_3534"
    INDEX 01 07:26:59
  TRACK 363 AUDIO
    TITLE "0:"
    INDEX 01 07:27:67
  TRACK 364 AUDIO
    TITLE "30:cjc135_3535"
    INDEX 01 07:28:39
  TRACK 365 AUDIO
    TITLE "0:"
    INDEX 01 07:30:04
  TRACK 366 AUDIO
    TITLE "31:cjc135_3536"
    INDEX 01 07:30:30
  TRACK 367 AUDIO
    TITLE "0:"
    INDEX 01 07:32:23
  TRACK 368 AUDIO
    TITLE "32:cjc135_3537"
    INDEX 01 07:32:46
  TRACK 369 AUDIO
    TITLE "0:"
    INDEX 01 07:34:37
  TRACK 370 AUDIO
    TITLE "29:cjc135_3538"
    INDEX 01 07:35:39
  TRACK 371 AUDIO
    TITLE "0:"
    INDEX 01 07:36:52
  TRACK 372 AUDIO
    TITLE "30:cjc135_3539"
    INDEX 01 07:37:28
  TRACK 373 AUDIO
    TITLE "0:"
    INDEX 01 07:40:05
  TRACK 374 AUDIO
    TITLE "31:cjc135_3540"
    INDEX 01 07:40:32
  TRACK 375 AUDIO
    TITLE "0:"
    INDEX 01 07:42:58
  TRACK 376 AUDIO
    TITLE "32:cjc135_3541"
    INDEX 01 07:43:09
  TRACK 377 AUDIO
    TITLE "0:"
    INDEX 01 07:45:37
  TRACK 378 AUDIO
    TITLE "29:cjc135_3542"
    INDEX 01 07:46:37
  TRACK 379 AUDIO
    TITLE "0:"
    INDEX 01 07:47:40
  TRACK 380 AUDIO
    TITLE "30:cjc135_3543"
    INDEX 01 07:48:14
  TRACK 381 AUDIO
    TITLE "0:"
    INDEX 01 07:51:22
  TRACK 382 AUDIO
    TITLE "31:cjc135_3544"
    INDEX 01 07:51:48
  TRACK 383 AUDIO
    TITLE "0:"
    INDEX 01 07:54:11
  TRACK 384 AUDIO
    TITLE "32:cjc135_3545"
    INDEX 01 07:54:38
  TRACK 385 AUDIO
    TITLE "0:"
    INDEX 01 07:57:01
  TRACK 386 AUDIO
    TITLE "29:cjc135_3546"
    INDEX 01 07:58:03
  TRACK 387 AUDIO
    TITLE "0:"
    INDEX 01 07:59:04
  TRACK 388 AUDIO
    TITLE "30:cjc135_3547"
    INDEX 01 07:59:53
  TRACK 389 AUDIO
    TITLE "0:"
    INDEX 01 08:02:26
  TRACK 390 AUDIO
    TITLE "31:cjc135_3548"
    INDEX 01 08:02:49
  TRACK 391 AUDIO
    TITLE "0:"
    INDEX 01 08:05:16
  TRACK 392 AUDIO
    TITLE "32:cjc135_3549"
    INDEX 01 08:05:42
  TRACK 393 AUDIO
    TITLE "0:"
    INDEX 01 08:08:11
  TRACK 394 AUDIO
    TITLE "29:cjc135_3550"
    INDEX 01 08:09:10
  TRACK 395 AUDIO
    TITLE "0:"
    INDEX 01 08:10:19
  TRACK 396 AUDIO
    TITLE "30:cjc135_3551"
    INDEX 01 08:10:70
  TRACK 397 AUDIO
    TITLE "0:"
    INDEX 01 08:13:37
  TRACK 398 AUDIO
    TITLE "31:cjc135_3552"
    INDEX 01 08:13:65
  TRACK 399 AUDIO
    TITLE "0:"
    INDEX 01 08:16:44
  TRACK 400 AUDIO
    TITLE "32:cjc135_3553"
    INDEX 01 08:16:67
  TRACK 401 AUDIO
    TITLE "0:"
    INDEX 01 08:19:46
  TRACK 402 AUDIO
    TITLE "29:cjc135_3554"
    INDEX 01 08:20:49
  TRACK 403 AUDIO
    TITLE "0:"
    INDEX 01 08:21:74
  TRACK 404 AUDIO
    TITLE "30:cjc135_3555"
    INDEX 01 08:22:46
  TRACK 405 AUDIO
    TITLE "0:"
    INDEX 01 08:24:49
  TRACK 406 AUDIO
    TITLE "31:cjc135_3556"
    INDEX 01 08:24:74
  TRACK 407 AUDIO
    TITLE "0:"
    INDEX 01 08:27:08
  TRACK 408 AUDIO
    TITLE "32:cjc135_3557"
    INDEX 01 08:27:32
  TRACK 409 AUDIO
    TITLE "0:"
    INDEX 01 08:29:40
  TRACK 410 AUDIO
    TITLE "29:cjc135_3558"
    INDEX 01 08:30:40
  TRACK 411 AUDIO
    TITLE "0:"
    INDEX 01 08:31:43
  TRACK 412 AUDIO
    TITLE "30:cjc135_3559"
    INDEX 01 08:32:19
  TRACK 413 AUDIO
    TITLE "0:"
    INDEX 01 08:34:47
  TRACK 414 AUDIO
    TITLE "31:cjc135_3560"
    INDEX 01 08:34:73
  TRACK 415 AUDIO
    TITLE "0:"
    INDEX 01 08:36:38
  TRACK 416 AUDIO
    TITLE "32:cjc135_3561"
    INDEX 01 08:36:62
  TRACK 417 AUDIO
    TITLE "0:"
    INDEX 01 08:38:26
  TRACK 418 AUDIO
    TITLE "29:cjc135_3562"
    INDEX 01 08:39:27
  TRACK 419 AUDIO
    TITLE "0:"
    INDEX 01 08:40:34
  TRACK 420 AUDIO
    TITLE "30:cjc135_3563"
    INDEX 01 08:41:10
  TRACK 421 AUDIO
    TITLE "0:"
    INDEX 01 08:43:27
  TRACK 422 AUDIO
    TITLE "31:cjc135_3564"
    INDEX 01 08:43:50
  TRACK 423 AUDIO
    TITLE "0:"
    INDEX 01 08:45:32
  TRACK 424 AUDIO
    TITLE "32:cjc135_3565"
    INDEX 01 08:45:57
  TRACK 425 AUDIO
    TITLE "0:"
    INDEX 01 08:47:40
  TRACK 426 AUDIO
    TITLE "29:cjc135_3566"
    INDEX 01 08:48:40
  TRACK 427 AUDIO
    TITLE "0:"
    INDEX 01 08:49:35
  TRACK 428 AUDIO
    TITLE "30:cjc135_3567"
    INDEX 01 08:50:09
  TRACK 429 AUDIO
    TITLE "0:"
    INDEX 01 08:51:56
  TRACK 430 AUDIO
    TITLE "31:cjc135_3568"
    INDEX 01 08:52:08
  TRACK 431 AUDIO
    TITLE "0:"
    INDEX 01 08:53:47
  TRACK 432 AUDIO
    TITLE "32:cjc135_3569"
    INDEX 01 08:54:03
  TRACK 433 AUDIO
    TITLE "0:"
    INDEX 01 08:55:42
  TRACK 434 AUDIO
    TITLE "29:cjc135_3570"
    INDEX 01 08:56:47
  TRACK 435 AUDIO
    TITLE "0:"
    INDEX 01 08:57:52
  TRACK 436 AUDIO
    TITLE "30:cjc135_3571"
    INDEX 01 08:58:30
  TRACK 437 AUDIO
    TITLE "0:"
    INDEX 01 09:00:31
  TRACK 438 AUDIO
    TITLE "31:cjc135_3572"
    INDEX 01 09:00:55
  TRACK 439 AUDIO
    TITLE "0:"
    INDEX 01 09:01:74
  TRACK 440 AUDIO
    TITLE "32:cjc135_3573"
    INDEX 01 09:02:24
  TRACK 441 AUDIO
    TITLE "0:"
    INDEX 01 09:03:47
  TRACK 442 AUDIO
    TITLE "29:cjc135_3574"
    INDEX 01 09:04:45
  TRACK 443 AUDIO
    TITLE "0:"
    INDEX 01 09:05:46
  TRACK 444 AUDIO
    TITLE "30:cjc135_3575"
    INDEX 01 09:06:22
  TRACK 445 AUDIO
    TITLE "0:"
    INDEX 01 09:08:13
  TRACK 446 AUDIO
    TITLE "31:cjc135_3576"
    INDEX 01 09:08:40
  TRACK 447 AUDIO
    TITLE "0:"
    INDEX 01 09:09:73
  TRACK 448 AUDIO
    TITLE "32:cjc135_3577"
    INDEX 01 09:10:22
  TRACK 449 AUDIO
    TITLE "0:"
    INDEX 01 09:11:52
  TRACK 450 AUDIO
    TITLE "29:cjc135_3578"
    INDEX 01 09:12:54
  TRACK 451 AUDIO
    TITLE "0:"
    INDEX 01 09:13:55
  TRACK 452 AUDIO
    TITLE "30:cjc135_3579"
    INDEX 01 09:14:31
  TRACK 453 AUDIO
    TITLE "0:"
    INDEX 01 09:16:11
  TRACK 454 AUDIO
    TITLE "31:cjc135_3580"
    INDEX 01 09:16:34
  TRACK 455 AUDIO
    TITLE "0:"
    INDEX 01 09:18:13
  TRACK 456 AUDIO
    TITLE "32:cjc135_3581"
    INDEX 01 09:18:39
  TRACK 457 AUDIO
    TITLE "0:"
    INDEX 01 09:20:20
  TRACK 458 AUDIO
    TITLE "29:cjc135_3582"
    INDEX 01 09:21:20
  TRACK 459 AUDIO
    TITLE "0:"
    INDEX 01 09:22:25
  TRACK 460 AUDIO
    TITLE "30:cjc135_3583"
    INDEX 01 09:22:72
  TRACK 461 AUDIO
    TITLE "0:"
    INDEX 01 09:24:49
  TRACK 462 AUDIO
    TITLE "31:cjc135_3584"
    INDEX 01 09:25:00
  TRACK 463 AUDIO
    TITLE "0:"
    INDEX 01 09:26:21
  TRACK 464 AUDIO
    TITLE "32:cjc135_3585"
    INDEX 01 09:26:48
  TRACK 465 AUDIO
    TITLE "0:"
    INDEX 01 09:27:67
  TRACK 466 AUDIO
    TITLE "29:cjc135_3586"
    INDEX 01 09:28:71
  TRACK 467 AUDIO
    TITLE "0:"
    INDEX 01 09:30:11
  TRACK 468 AUDIO
    TITLE "30:cjc135_3587"
    INDEX 01 09:30:62
  TRACK 469 AUDIO
    TITLE "0:"
    INDEX 01 09:32:68
  TRACK 470 AUDIO
    TITLE "31:cjc135_3588"
    INDEX 01 09:33:19
  TRACK 471 AUDIO
    TITLE "0:"
    INDEX 01 09:35:10
  TRACK 472 AUDIO
    TITLE "32:cjc135_3589"
    INDEX 01 09:35:37
  TRACK 473 AUDIO
    TITLE "0:"
    INDEX 01 09:37:26
  TRACK 474 AUDIO
    TITLE "29:cjc135_3590"
    INDEX 01 09:38:28
  TRACK 475 AUDIO
    TITLE "0:"
    INDEX 01 09:39:37
  TRACK 476 AUDIO
    TITLE "30:cjc135_3591"
    INDEX 01 09:40:15
  TRACK 477 AUDIO
    TITLE "0:"
    INDEX 01 09:43:13
  TRACK 478 AUDIO
    TITLE "31:cjc135_3592"
    INDEX 01 09:43:39
  TRACK 479 AUDIO
    TITLE "0:"
    INDEX 01 09:45:67
  TRACK 480 AUDIO
    TITLE "32:cjc135_3593"
    INDEX 01 09:46:18
  TRACK 481 AUDIO
    TITLE "0:"
    INDEX 01 09:48:46
  TRACK 482 AUDIO
    TITLE "29:cjc135_3594"
    INDEX 01 09:49:45
  TRACK 483 AUDIO
    TITLE "0:"
    INDEX 01 09:50:58
  TRACK 484 AUDIO
    TITLE "30:cjc135_3595"
    INDEX 01 09:51:32
  TRACK 485 AUDIO
    TITLE "0:"
    INDEX 01 09:54:01
  TRACK 486 AUDIO
    TITLE "31:cjc135_3596"
    INDEX 01 09:54:25
  TRACK 487 AUDIO
    TITLE "0:"
    INDEX 01 09:57:29
  TRACK 488 AUDIO
    TITLE "32:cjc135_3597"
    INDEX 01 09:57:53
  TRACK 489 AUDIO
    TITLE "0:"
    INDEX 01 10:00:57
  TRACK 490 AUDIO
    TITLE "29:cjc135_3598"
    INDEX 01 10:01:56
  TRACK 491 AUDIO
    TITLE "0:"
    INDEX 01 10:02:67
  TRACK 492 AUDIO
    TITLE "30:cjc135_3599"
    INDEX 01 10:03:45
  TRACK 493 AUDIO
    TITLE "0:"
    INDEX 01 10:06:26
  TRACK 494 AUDIO
    TITLE "31:cjc135_3600"
    INDEX 01 10:06:55
  TRACK 495 AUDIO
    TITLE "0:"
    INDEX 01 10:09:28
  TRACK 496 AUDIO
    TITLE "32:cjc135_3601"
    INDEX 01 10:09:54
  TRACK 497 AUDIO
    TITLE "0:"
    INDEX 01 10:12:29
  TRACK 498 AUDIO
    TITLE "29:cjc135_3602"
    INDEX 01 10:13:30
  TRACK 499 AUDIO
    TITLE "0:"
    INDEX 01 10:14:37
  TRACK 500 AUDIO
    TITLE "30:cjc135_3603"
    INDEX 01 10:15:15
  TRACK 501 AUDIO
    TITLE "0:"
    INDEX 01 10:18:14
  TRACK 502 AUDIO
    TITLE "31:cjc135_3604"
    INDEX 01 10:18:39
  TRACK 503 AUDIO
    TITLE "0:"
    INDEX 01 10:20:61
  TRACK 504 AUDIO
    TITLE "32:cjc135_3605"
    INDEX 01 10:21:14
  TRACK 505 AUDIO
    TITLE "0:"
    INDEX 01 10:23:38
  TRACK 506 AUDIO
    TITLE "29:cjc135_3606"
    INDEX 01 10:24:40
  TRACK 507 AUDIO
    TITLE "0:"
    INDEX 01 10:25:41
  TRACK 508 AUDIO
    TITLE "30:cjc135_3607"
    INDEX 01 10:26:17
  TRACK 509 AUDIO
    TITLE "0:"
    INDEX 01 10:29:45
  TRACK 510 AUDIO
    TITLE "31:cjc135_3608"
    INDEX 01 10:29:72
  TRACK 511 AUDIO
    TITLE "0:"
    INDEX 01 10:33:31
  TRACK 512 AUDIO
    TITLE "32:cjc135_3609"
    INDEX 01 10:33:56
  TRACK 513 AUDIO
    TITLE "0:"
    INDEX 01 10:37:13
  TRACK 514 AUDIO
    TITLE "29:cjc135_3610"
    INDEX 01 10:38:12
  TRACK 515 AUDIO
    TITLE "0:"
    INDEX 01 10:39:10
  TRACK 516 AUDIO
    TITLE "30:cjc135_3611"
    INDEX 01 10:39:57
  TRACK 517 AUDIO
    TITLE "0:"
    INDEX 01 10:42:10
  TRACK 518 AUDIO
    TITLE "31:cjc135_3612"
    INDEX 01 10:42:38
  TRACK 519 AUDIO
    TITLE "0:"
    INDEX 01 10:44:64
  TRACK 520 AUDIO
    TITLE "32:cjc135_3613"
    INDEX 01 10:45:14
  TRACK 521 AUDIO
    TITLE "0:"
    INDEX 01 10:47:43
  TRACK 522 AUDIO
    TITLE "29:cjc135_3614"
    INDEX 01 10:48:42
  TRACK 523 AUDIO
    TITLE "0:"
    INDEX 01 10:49:47
  TRACK 524 AUDIO
    TITLE "30:cjc135_3615"
    INDEX 01 10:50:21
  TRACK 525 AUDIO
    TITLE "0:"
    INDEX 01 10:53:53
  TRACK 526 AUDIO
    TITLE "31:cjc135_3616"
    INDEX 01 10:54:02
  TRACK 527 AUDIO
    TITLE "0:"
    INDEX 01 10:57:31
  TRACK 528 AUDIO
    TITLE "32:cjc135_3617"
    INDEX 01 10:57:55
  TRACK 529 AUDIO
    TITLE "0:"
    INDEX 01 11:01:08
  TRACK 530 AUDIO
    TITLE "29:cjc135_3618"
    INDEX 01 11:02:07
  TRACK 531 AUDIO
    TITLE "0:"
    INDEX 01 11:03:34
  TRACK 532 AUDIO
    TITLE "30:cjc135_3619"
    INDEX 01 11:04:08
  TRACK 533 AUDIO
    TITLE "0:"
    INDEX 01 11:07:04
  TRACK 534 AUDIO
    TITLE "31:cjc135_3620"
    INDEX 01 11:07:30
  TRACK 535 AUDIO
    TITLE "0:"
    INDEX 01 11:10:20
  TRACK 536 AUDIO
    TITLE "32:cjc135_3621"
    INDEX 01 11:10:46
  TRACK 537 AUDIO
    TITLE "0:"
    INDEX 01 11:13:34
  TRACK 538 AUDIO
    TITLE "29:cjc135_3622"
    INDEX 01 11:14:34
  TRACK 539 AUDIO
    TITLE "0:"
    INDEX 01 11:15:53
  TRACK 540 AUDIO
    TITLE "30:cjc135_3623"
    INDEX 01 11:16:27
  TRACK 541 AUDIO
    TITLE "0:"
    INDEX 01 11:19:51
  TRACK 542 AUDIO
    TITLE "31:cjc135_3624"
    INDEX 01 11:19:74
  TRACK 543 AUDIO
    TITLE "0:"
    INDEX 01 11:23:11
  TRACK 544 AUDIO
    TITLE "32:cjc135_3625"
    INDEX 01 11:23:35
  TRACK 545 AUDIO
    TITLE "0:"
    INDEX 01 11:26:47
  TRACK 546 AUDIO
    TITLE "29:cjc135_3626"
    INDEX 01 11:27:44
  TRACK 547 AUDIO
    TITLE "0:"
    INDEX 01 11:29:04
  TRACK 548 AUDIO
    TITLE "30:cjc135_3627"
    INDEX 01 11:29:55
  TRACK 549 AUDIO
    TITLE "0:"
    INDEX 01 11:32:37
  TRACK 550 AUDIO
    TITLE "31:cjc135_3628"
    INDEX 01 11:32:63
  TRACK 551 AUDIO
    TITLE "0:"
    INDEX 01 11:35:32
  TRACK 552 AUDIO
    TITLE "32:cjc135_3629"
    INDEX 01 11:35:57
  TRACK 553 AUDIO
    TITLE "0:"
    INDEX 01 11:38:28
  TRACK 554 AUDIO
    TITLE "29:cjc135_3630"
    INDEX 01 11:39:28
  TRACK 555 AUDIO
    TITLE "0:"
    INDEX 01 11:40:35
  TRACK 556 AUDIO
    TITLE "30:cjc135_3631"
    INDEX 01 11:41:09
  TRACK 557 AUDIO
    TITLE "0:"
    INDEX 01 11:42:67
  TRACK 558 AUDIO
    TITLE "31:cjc135_3632"
    INDEX 01 11:43:22
  TRACK 559 AUDIO
    TITLE "0:"
    INDEX 01 11:45:17
  TRACK 560 AUDIO
    TITLE "32:cjc135_3633"
    INDEX 01 11:45:44
  TRACK 561 AUDIO
    TITLE "0:"
    INDEX 01 11:47:37
  TRACK 562 AUDIO
    TITLE "29:cjc135_3634"
    INDEX 01 11:48:40
  TRACK 563 AUDIO
    TITLE "0:"
    INDEX 01 11:49:52
  TRACK 564 AUDIO
    TITLE "30:cjc135_3635"
    INDEX 01 11:50:26
  TRACK 565 AUDIO
    TITLE "0:"
    INDEX 01 11:51:74
  TRACK 566 AUDIO
    TITLE "31:cjc135_3636"
    INDEX 01 11:52:24
  TRACK 567 AUDIO
    TITLE "0:"
    INDEX 01 11:54:10
  TRACK 568 AUDIO
    TITLE "32:cjc135_3637"
    INDEX 01 11:54:35
  TRACK 569 AUDIO
    TITLE "0:"
    INDEX 01 11:56:20
  TRACK 570 AUDIO
    TITLE "29:cjc135_3638"
    INDEX 01 11:57:20
  TRACK 571 AUDIO
    TITLE "0:"
    INDEX 01 11:58:41
  TRACK 572 AUDIO
    TITLE "30:cjc135_3639"
    INDEX 01 11:59:30
  TRACK 573 AUDIO
    TITLE "0:"
    INDEX 01 12:00:67
  TRACK 574 AUDIO
    TITLE "31:cjc135_3640"
    INDEX 01 12:01:21
  TRACK 575 AUDIO
    TITLE "0:"
    INDEX 01 12:03:11
  TRACK 576 AUDIO
    TITLE "32:cjc135_3641"
    INDEX 01 12:03:36
  TRACK 577 AUDIO
    TITLE "0:"
    INDEX 01 12:05:25
  TRACK 578 AUDIO
    TITLE "29:cjc135_3642"
    INDEX 01 12:06:25
  TRACK 579 AUDIO
    TITLE "0:"
    INDEX 01 12:07:36
  TRACK 580 AUDIO
    TITLE "30:cjc135_3643"
    INDEX 01 12:08:16
  TRACK 581 AUDIO
    TITLE "0:"
    INDEX 01 12:10:50
  TRACK 582 AUDIO
    TITLE "31:cjc135_3644"
    INDEX 01 12:11:00
  TRACK 583 AUDIO
    TITLE "0:"
    INDEX 01 12:13:19
  TRACK 584 AUDIO
    TITLE "32:cjc135_3645"
    INDEX 01 12:13:42
  TRACK 585 AUDIO
    TITLE "0:"
    INDEX 01 12:15:61
  TRACK 586 AUDIO
    TITLE "29:cjc135_3646"
    INDEX 01 12:16:66
  TRACK 587 AUDIO
    TITLE "0:"
    INDEX 01 12:17:73
  TRACK 588 AUDIO
    TITLE "30:cjc135_3647"
    INDEX 01 12:18:47
  TRACK 589 AUDIO
    TITLE "0:"
    INDEX 01 12:21:56
  TRACK 590 AUDIO
    TITLE "31:cjc135_3648"
    INDEX 01 12:22:04
  TRACK 591 AUDIO
    TITLE "0:"
    INDEX 01 12:24:56
  TRACK 592 AUDIO
    TITLE "32:cjc135_3649"
    INDEX 01 12:25:04
  TRACK 593 AUDIO
    TITLE "0:"
    INDEX 01 12:27:52
  TRACK 594 AUDIO
    TITLE "29:cjc135_3650"
    INDEX 01 12:28:56
  TRACK 595 AUDIO
    TITLE "0:"
    INDEX 01 12:29:69
  TRACK 596 AUDIO
    TITLE "30:cjc135_3651"
    INDEX 01 12:30:45
  TRACK 597 AUDIO
    TITLE "0:"
    INDEX 01 12:33:14
  TRACK 598 AUDIO
    TITLE "31:cjc135_3652"
    INDEX 01 12:33:37
  TRACK 599 AUDIO
    TITLE "0:"
    INDEX 01 12:36:26
  TRACK 600 AUDIO
    TITLE "32:cjc135_3653"
    INDEX 01 12:36:49
  TRACK 601 AUDIO
    TITLE "0:"
    INDEX 01 12:39:38
  TRACK 602 AUDIO
    TITLE "29:cjc135_3654"
    INDEX 01 12:40:37
  TRACK 603 AUDIO
    TITLE "0:"
    INDEX 01 12:41:41
  TRACK 604 AUDIO
    TITLE "30:cjc135_3655"
    INDEX 01 12:42:15
  TRACK 605 AUDIO
    TITLE "0:"
    INDEX 01 12:44:74
  TRACK 606 AUDIO
    TITLE "31:cjc135_3656"
    INDEX 01 12:45:23
  TRACK 607 AUDIO
    TITLE "0:"
    INDEX 01 12:47:71
  TRACK 608 AUDIO
    TITLE "32:cjc135_3657"
    INDEX 01 12:48:23
  TRACK 609 AUDIO
    TITLE "0:"
    INDEX 01 12:50:73
  TRACK 610 AUDIO
    TITLE "29:cjc135_3658"
    INDEX 01 12:51:72
  TRACK 611 AUDIO
    TITLE "0:"
    INDEX 01 12:53:16
  TRACK 612 AUDIO
    TITLE "30:cjc135_3659"
    INDEX 01 12:53:65
  TRACK 613 AUDIO
    TITLE "0:"
    INDEX 01 12:57:44
  TRACK 614 AUDIO
    TITLE "31:cjc135_3660"
    INDEX 01 12:57:69
  TRACK 615 AUDIO
    TITLE "0:"
    INDEX 01 13:00:61
  TRACK 616 AUDIO
    TITLE "32:cjc135_3661"
    INDEX 01 13:01:12
  TRACK 617 AUDIO
    TITLE "0:"
    INDEX 01 13:04:04
  TRACK 618 AUDIO
    TITLE "29:cjc135_3662"
    INDEX 01 13:05:04
  TRACK 619 AUDIO
    TITLE "0:"
    INDEX 01 13:06:21
  TRACK 620 AUDIO
    TITLE "30:cjc135_3663"
    INDEX 01 13:06:70
  TRACK 621 AUDIO
    TITLE "0:"
    INDEX 01 13:10:46
  TRACK 622 AUDIO
    TITLE "31:cjc135_3664"
    INDEX 01 13:11:04
  TRACK 623 AUDIO
    TITLE "0:"
    INDEX 01 13:14:28
  TRACK 624 AUDIO
    TITLE "32:cjc135_3665"
    INDEX 01 13:14:54
  TRACK 625 AUDIO
    TITLE "0:"
    INDEX 01 13:18:05
  TRACK 626 AUDIO
    TITLE "29:cjc135_3666"
    INDEX 01 13:19:04
  TRACK 627 AUDIO
    TITLE "0:"
    INDEX 01 13:20:05
  TRACK 628 AUDIO
    TITLE "30:cjc135_3667"
    INDEX 01 13:20:54
  TRACK 629 AUDIO
    TITLE "0:"
    INDEX 01 13:22:49
  TRACK 630 AUDIO
    TITLE "31:cjc135_3668"
    INDEX 01 13:23:00
  TRACK 631 AUDIO
    TITLE "0:"
    INDEX 01 13:25:42
  TRACK 632 AUDIO
    TITLE "32:cjc135_3669"
    INDEX 01 13:25:65
  TRACK 633 AUDIO
    TITLE "0:"
    INDEX 01 13:28:28
  TRACK 634 AUDIO
    TITLE "29:cjc135_3670"
    INDEX 01 13:29:30
  TRACK 635 AUDIO
    TITLE "0:"
    INDEX 01 13:30:37
  TRACK 636 AUDIO
    TITLE "30:cjc135_3671"
    INDEX 01 13:31:13
  TRACK 637 AUDIO
    TITLE "0:"
    INDEX 01 13:33:49
  TRACK 638 AUDIO
    TITLE "31:cjc135_3672"
    INDEX 01 13:34:02
  TRACK 639 AUDIO
    TITLE "0:"
    INDEX 01 13:36:38
  TRACK 640 AUDIO
    TITLE "32:cjc135_3673"
    INDEX 01 13:36:61
  TRACK 641 AUDIO
    TITLE "0:"
    INDEX 01 13:39:22
  TRACK 642 AUDIO
    TITLE "29:cjc135_3674"
    INDEX 01 13:40:22
  TRACK 643 AUDIO
    TITLE "0:"
    INDEX 01 13:41:25
  TRACK 644 AUDIO
    TITLE "30:cjc135_3675"
    INDEX 01 13:41:74
  TRACK 645 AUDIO
    TITLE "0:"
    INDEX 01 13:43:22
  TRACK 646 AUDIO
    TITLE "31:cjc135_3676"
    INDEX 01 13:43:48
  TRACK 647 AUDIO
    TITLE "0:"
    INDEX 01 13:45:07
  TRACK 648 AUDIO
    TITLE "32:cjc135_3677"
    INDEX 01 13:45:35
  TRACK 649 AUDIO
    TITLE "0:"
    INDEX 01 13:46:71
  TRACK 650 AUDIO
    TITLE "29:cjc135_3678"
    INDEX 01 13:47:73
  TRACK 651 AUDIO
    TITLE "0:"
    INDEX 01 13:49:01
  TRACK 652 AUDIO
    TITLE "30:cjc135_3679"
    INDEX 01 13:49:54
  TRACK 653 AUDIO
    TITLE "0:"
    INDEX 01 13:52:23
  TRACK 654 AUDIO
    TITLE "31:cjc135_3680"
    INDEX 01 13:52:45
  TRACK 655 AUDIO
    TITLE "0:"
    INDEX 01 13:55:00
  TRACK 656 AUDIO
    TITLE "32:cjc135_3681"
    INDEX 01 13:55:21
  TRACK 657 AUDIO
    TITLE "0:"
    INDEX 01 13:57:52
  TRACK 658 AUDIO
    TITLE "29:cjc135_3682"
    INDEX 01 13:58:53
  TRACK 659 AUDIO
    TITLE "0:"
    INDEX 01 13:59:52
  TRACK 660 AUDIO
    TITLE "30:cjc135_3683"
    INDEX 01 14:00:26
  TRACK 661 AUDIO
    TITLE "0:"
    INDEX 01 14:02:02
  TRACK 662 AUDIO
    TITLE "31:cjc135_3684"
    INDEX 01 14:02:25
  TRACK 663 AUDIO
    TITLE "0:"
    INDEX 01 14:03:74
  TRACK 664 AUDIO
    TITLE "32:cjc135_3685"
    INDEX 01 14:04:22
  TRACK 665 AUDIO
    TITLE "0:"
    INDEX 01 14:05:71
  TRACK 666 AUDIO
    TITLE "29:cjc135_3686"
    INDEX 01 14:06:70
  TRACK 667 AUDIO
    TITLE "0:"
    INDEX 01 14:08:04
  TRACK 668 AUDIO
    TITLE "30:cjc135_3687"
    INDEX 01 14:08:55
  TRACK 669 AUDIO
    TITLE "0:"
    INDEX 01 14:11:62
  TRACK 670 AUDIO
    TITLE "31:cjc135_3688"
    INDEX 01 14:12:10
  TRACK 671 AUDIO
    TITLE "0:"
    INDEX 01 14:15:22
  TRACK 672 AUDIO
    TITLE "32:cjc135_3689"
    INDEX 01 14:15:50
  TRACK 673 AUDIO
    TITLE "0:"
    INDEX 01 14:18:66
  TRACK 674 AUDIO
    TITLE "29:cjc135_3690"
    INDEX 01 14:19:65
  TRACK 675 AUDIO
    TITLE "0:"
    INDEX 01 14:20:70
  TRACK 676 AUDIO
    TITLE "30:cjc135_3691"
    INDEX 01 14:21:46
  TRACK 677 AUDIO
    TITLE "0:"
    INDEX 01 14:23:06
  TRACK 678 AUDIO
    TITLE "31:cjc135_3692"
    INDEX 01 14:23:29
  TRACK 679 AUDIO
    TITLE "0:"
    INDEX 01 14:25:26
  TRACK 680 AUDIO
    TITLE "32:cjc135_3693"
    INDEX 01 14:25:50
  TRACK 681 AUDIO
    TITLE "0:"
    INDEX 01 14:27:47
  TRACK 682 AUDIO
    TITLE "29:cjc135_3694"
    INDEX 01 14:28:44
  TRACK 683 AUDIO
    TITLE "0:"
    INDEX 01 14:29:42
  TRACK 684 AUDIO
    TITLE "30:cjc135_3695"
    INDEX 01 14:30:14
  TRACK 685 AUDIO
    TITLE "0:"
    INDEX 01 14:33:14
  TRACK 686 AUDIO
    TITLE "31:cjc135_3696"
    INDEX 01 14:33:38
  TRACK 687 AUDIO
    TITLE "0:"
    INDEX 01 14:36:32
  TRACK 688 AUDIO
    TITLE "32:cjc135_3697"
    INDEX 01 14:36:58
  TRACK 689 AUDIO
    TITLE "0:"
    INDEX 01 14:39:52
  TRACK 690 AUDIO
    TITLE "29:cjc135_3698"
    INDEX 01 14:40:51
  TRACK 691 AUDIO
    TITLE "0:"
    INDEX 01 14:41:70
  TRACK 692 AUDIO
    TITLE "30:cjc135_3699"
    INDEX 01 14:42:44
  TRACK 693 AUDIO
    TITLE "0:"
    INDEX 01 14:45:57
  TRACK 694 AUDIO
    TITLE "31:cjc135_3700"
    INDEX 01 14:46:07
  TRACK 695 AUDIO
    TITLE "0:"
    INDEX 01 14:49:01
  TRACK 696 AUDIO
    TITLE "32:cjc135_3701"
    INDEX 01 14:49:31
  TRACK 697 AUDIO
    TITLE "0:"
    INDEX 01 14:52:25
  TRACK 698 AUDIO
    TITLE "29:cjc135_3702"
    INDEX 01 14:53:27
  TRACK 699 AUDIO
    TITLE "0:"
    INDEX 01 14:54:55
  TRACK 700 AUDIO
    TITLE "30:cjc135_3703"
    INDEX 01 14:55:33
  TRACK 701 AUDIO
    TITLE "0:"
    INDEX 01 14:57:62
  TRACK 702 AUDIO
    TITLE "31:cjc135_3704"
    INDEX 01 14:58:12
  TRACK 703 AUDIO
    TITLE "0:"
    INDEX 01 15:00:33
  TRACK 704 AUDIO
    TITLE "32:cjc135_3705"
    INDEX 01 15:00:58
  TRACK 705 AUDIO
    TITLE "0:"
    INDEX 01 15:03:02
  TRACK 706 AUDIO
    TITLE "29:cjc135_3706"
    INDEX 01 15:04:03
  TRACK 707 AUDIO
    TITLE "0:"
    INDEX 01 15:05:08
  TRACK 708 AUDIO
    TITLE "30:cjc135_3707"
    INDEX 01 15:05:57
  TRACK 709 AUDIO
    TITLE "0:"
    INDEX 01 15:08:26
  TRACK 710 AUDIO
    TITLE "31:cjc135_3708"
    INDEX 01 15:08:50
  TRACK 711 AUDIO
    TITLE "0:"
    INDEX 01 15:10:58
  TRACK 712 AUDIO
    TITLE "32:cjc135_3709"
    INDEX 01 15:11:09
  TRACK 713 AUDIO
    TITLE "0:"
    INDEX 01 15:13:20
  TRACK 714 AUDIO
    TITLE "29:cjc135_3710"
    INDEX 01 15:14:19
  TRACK 715 AUDIO
    TITLE "0:"
    INDEX 01 15:15:48
  TRACK 716 AUDIO
    TITLE "30:cjc135_3711"
    INDEX 01 15:16:22
  TRACK 717 AUDIO
    TITLE "0:"
    INDEX 01 15:20:14
  TRACK 718 AUDIO
    TITLE "31:cjc135_3712"
    INDEX 01 15:20:37
  TRACK 719 AUDIO
    TITLE "0:"
    INDEX 01 15:23:49
  TRACK 720 AUDIO
    TITLE "32:cjc135_3713"
    INDEX 01 15:24:00
  TRACK 721 AUDIO
    TITLE "0:"
    INDEX 01 15:27:14
  TRACK 722 AUDIO
    TITLE "29:cjc135_3714"
    INDEX 01 15:28:13
  TRACK 723 AUDIO
    TITLE "0:"
    INDEX 01 15:29:28
  TRACK 724 AUDIO
    TITLE "30:cjc135_3715"
    INDEX 01 15:30:06
  TRACK 725 AUDIO
    TITLE "0:"
    INDEX 01 15:33:05
  TRACK 726 AUDIO
    TITLE "31:cjc135_3716"
    INDEX 01 15:33:32
  TRACK 727 AUDIO
    TITLE "0:"
    INDEX 01 15:35:47
  TRACK 728 AUDIO
    TITLE "32:cjc135_3717"
    INDEX 01 15:35:74
  TRACK 729 AUDIO
    TITLE "0:"
    INDEX 01 15:38:18
  TRACK 730 AUDIO
    TITLE "29:cjc135_3718"
    INDEX 01 15:39:17
  TRACK 731 AUDIO
    TITLE "0:"
    INDEX 01 15:40:20
  TRACK 732 AUDIO
    TITLE "30:cjc135_3719"
    INDEX 01 15:41:00
  TRACK 733 AUDIO
    TITLE "0:"
    INDEX 01 15:43:28
  TRACK 734 AUDIO
    TITLE "31:cjc135_3720"
    INDEX 01 15:43:52
  TRACK 735 AUDIO
    TITLE "0:"
    INDEX 01 15:45:55
  TRACK 736 AUDIO
    TITLE "32:cjc135_3721"
    INDEX 01 15:46:15
  TRACK 737 AUDIO
    TITLE "0:"
    INDEX 01 15:48:18
  TRACK 738 AUDIO
    TITLE "29:cjc135_3722"
    INDEX 01 15:49:27
  TRACK 739 AUDIO
    TITLE "0:"
    INDEX 01 15:50:29
  TRACK 740 AUDIO
    TITLE "30:cjc135_3723"
    INDEX 01 15:51:10
  TRACK 741 AUDIO
    TITLE "0:"
    INDEX 01 15:53:21
  TRACK 742 AUDIO
    TITLE "31:cjc135_3724"
    INDEX 01 15:53:46
  TRACK 743 AUDIO
    TITLE "0:"
    INDEX 01 15:55:34
  TRACK 744 AUDIO
    TITLE "32:cjc135_3725"
    INDEX 01 15:55:59
  TRACK 745 AUDIO
    TITLE "0:"
    INDEX 01 15:57:46
  TRACK 746 AUDIO
    TITLE "29:cjc135_3726"
    INDEX 01 15:58:48
  TRACK 747 AUDIO
    TITLE "0:"
    INDEX 01 15:59:67
  TRACK 748 AUDIO
    TITLE "30:cjc135_3727"
    INDEX 01 16:00:39
  TRACK 749 AUDIO
    TITLE "0:"
    INDEX 01 16:03:14
  TRACK 750 AUDIO
    TITLE "31:cjc135_3728"
    INDEX 01 16:03:37
  TRACK 751 AUDIO
    TITLE "0:"
    INDEX 01 16:05:59
  TRACK 752 AUDIO
    TITLE "32:cjc135_3729"
    INDEX 01 16:06:10
  TRACK 753 AUDIO
    TITLE "0:"
    INDEX 01 16:08:32
  TRACK 754 AUDIO
    TITLE "29:cjc135_3730"
    INDEX 01 16:09:32
  TRACK 755 AUDIO
    TITLE "0:"
    INDEX 01 16:10:31
  TRACK 756 AUDIO
    TITLE "30:cjc135_3731"
    INDEX 01 16:11:07
  TRACK 757 AUDIO
    TITLE "0:"
    INDEX 01 16:13:71
  TRACK 758 AUDIO
    TITLE "31:cjc135_3732"
    INDEX 01 16:14:21
  TRACK 759 AUDIO
    TITLE "0:"
    INDEX 01 16:16:34
  TRACK 760 AUDIO
    TITLE "32:cjc135_3733"
    INDEX 01 16:16:59
  TRACK 761 AUDIO
    TITLE "0:"
    INDEX 01 16:18:72
  TRACK 762 AUDIO
    TITLE "29:cjc135_3734"
    INDEX 01 16:19:73
  TRACK 763 AUDIO
    TITLE "0:"
    INDEX 01 16:20:73
  TRACK 764 AUDIO
    TITLE "30:cjc135_3735"
    INDEX 01 16:21:47
  TRACK 765 AUDIO
    TITLE "0:"
    INDEX 01 16:24:35
  TRACK 766 AUDIO
    TITLE "31:cjc135_3736"
    INDEX 01 16:24:59
  TRACK 767 AUDIO
    TITLE "0:"
    INDEX 01 16:26:67
  TRACK 768 AUDIO
    TITLE "32:cjc135_3737"
    INDEX 01 16:27:18
  TRACK 769 AUDIO
    TITLE "0:"
    INDEX 01 16:29:27
  TRACK 770 AUDIO
    TITLE "29:cjc135_3738"
    INDEX 01 16:30:24
  TRACK 771 AUDIO
    TITLE "0:"
    INDEX 01 16:31:43
  TRACK 772 AUDIO
    TITLE "30:cjc135_3739"
    INDEX 01 16:32:17
  TRACK 773 AUDIO
    TITLE "0:"
    INDEX 01 16:34:04
  TRACK 774 AUDIO
    TITLE "31:cjc135_3740"
    INDEX 01 16:34:30
  TRACK 775 AUDIO
    TITLE "0:"
    INDEX 01 16:36:09
  TRACK 776 AUDIO
    TITLE "32:cjc135_3741"
    INDEX 01 16:36:33
  TRACK 777 AUDIO
    TITLE "0:"
    INDEX 01 16:38:12
  TRACK 778 AUDIO
    TITLE "29:cjc135_3742"
    INDEX 01 16:39:09
  TRACK 779 AUDIO
    TITLE "0:"
    INDEX 01 16:40:15
  TRACK 780 AUDIO
    TITLE "30:cjc135_3743"
    INDEX 01 16:40:66
  TRACK 781 AUDIO
    TITLE "0:"
    INDEX 01 16:43:64
  TRACK 782 AUDIO
    TITLE "31:cjc135_3744"
    INDEX 01 16:44:16
  TRACK 783 AUDIO
    TITLE "0:"
    INDEX 01 16:46:70
  TRACK 784 AUDIO
    TITLE "32:cjc135_3745"
    INDEX 01 16:47:21
  TRACK 785 AUDIO
    TITLE "0:"
    INDEX 01 16:49:74
  TRACK 786 AUDIO
    TITLE "29:cjc135_3746"
    INDEX 01 16:50:72
  TRACK 787 AUDIO
    TITLE "0:"
    INDEX 01 16:51:67
  TRACK 788 AUDIO
    TITLE "30:cjc135_3747"
    INDEX 01 16:52:41
  TRACK 789 AUDIO
    TITLE "0:"
    INDEX 01 16:54:66
  TRACK 790 AUDIO
    TITLE "31:cjc135_3748"
    INDEX 01 16:55:14
  TRACK 791 AUDIO
    TITLE "0:"
    INDEX 01 16:57:11
  TRACK 792 AUDIO
    TITLE "32:cjc135_3749"
    INDEX 01 16:57:35
  TRACK 793 AUDIO
    TITLE "0:"
    INDEX 01 16:59:32
  TRACK 794 AUDIO
    TITLE "29:cjc135_3750"
    INDEX 01 17:00:29
  TRACK 795 AUDIO
    TITLE "0:"
    INDEX 01 17:01:34
  TRACK 796 AUDIO
    TITLE "30:cjc135_3751"
    INDEX 01 17:02:10
  TRACK 797 AUDIO
    TITLE "0:"
    INDEX 01 17:03:43
  TRACK 798 AUDIO
    TITLE "31:cjc135_3752"
    INDEX 01 17:03:67
  TRACK 799 AUDIO
    TITLE "0:"
    INDEX 01 17:05:58
  TRACK 800 AUDIO
    TITLE "32:cjc135_3753"
    INDEX 01 17:06:14
  TRACK 801 AUDIO
    TITLE "0:"
    INDEX 01 17:08:05
